#!OML:ASF E:\id_vita\Project 1\Capture day 1\Session 1\Female.ASF
:FULLY-SPECIFIED
:DEGREES
827
root -14.1189 16.313 2.24206 -158.947 76.0378 -175.276
lowerback -12.926 -1.3405 -3.13748
upperback -5.38696 -1.15394 1.34305
thorax 1.68213 -0.40283 3.01043
lowerneck 3.53139 -3.16428 -8.33566
upperneck 1.83194 -4.52703 11.9159
head 0.420513 -2.30054 4.95899
rclavicle 6.31355e-015 6.85807e-015
rhumerus -43.388 -33.0186 -65.6464
rradius 22.2023
rwrist 9.87552
rhand -16.8196 1.6039
rfingers 7.12502
rthumb 9.40939 -28.1661
lclavicle 6.31355e-015 6.85807e-015
lhumerus -50.7208 31.3062 64.8023
lradius 21.1888
lwrist -34.005
lhand -6.18992 24.7351
lfingers 7.12502
lthumb 19.6498 53.762
rfemur -25.6236 7.01378 25.1064
rtibia 28.7414
rfoot -12.7449 -17.4227
rtoes -1.90403
lfemur -31.1736 8.03867 -18.6849
ltibia 63.4694
lfoot -5.82501 19.6998
ltoes 15.67
828
root -14.0351 16.3107 2.24688 -159.352 76.2095 -176.406
lowerback -13.218 -1.35132 -3.53891
upperback -5.55904 -1.09565 1.35247
thorax 1.66067 -0.358424 3.25469
lowerneck 3.57706 -3.1574 -8.36442
upperneck 1.55541 -4.50597 11.6866
head 0.326325 -2.29822 4.89667
rclavicle -4.02034e-015 -5.35476e-015
rhumerus -42.5345 -32.658 -66.3554
rradius 22.3816
rwrist 9.53974
rhand -17.1355 1.55943
rfingers 7.12502
rthumb 9.10456 -28.2241
lclavicle -4.02034e-015 -5.35476e-015
lhumerus -51.5219 32.1531 63.7467
lradius 20.6686
lwrist -35.1821
lhand -5.92466 24.8712
lfingers 7.12502
lthumb 19.9048 53.8719
rfemur -26.0281 7.19618 24.8079
rtibia 28.6799
rfoot -12.9092 -17.3838
rtoes -2.21969
lfemur -33.402 6.89716 -19.1366
ltibia 63.6272
lfoot -6.14756 19.6313
ltoes 18.466
829
root -13.8963 16.3173 2.22593 -159.863 77.4504 -176.437
lowerback -13.2095 -0.920341 -3.51988
upperback -5.27836 -0.541761 1.15941
thorax 1.90255 -0.10302 3.12218
lowerneck 3.69875 -3.12737 -8.38869
upperneck 1.29861 -4.45845 11.5857
head 0.225118 -2.28303 4.87477
rclavicle -2.0018e-014 -2.68359e-015
rhumerus -41.7704 -32.3277 -67.2285
rradius 22.5557
rwrist 9.1255
rhand -17.7207 1.12905
rfingers 7.12502
rthumb 8.5399 -28.6783
lclavicle -2.0018e-014 -2.68359e-015
lhumerus -52.5935 33.2893 61.9893
lradius 20.0827
lwrist -36.6853
lhand -5.54659 24.8481
lfingers 7.12502
lthumb 20.2682 53.8106
rfemur -24.89 7.60913 24.6651
rtibia 28.5449
rfoot -13.6221 -16.8021
rtoes -3.47771
lfemur -33.7189 6.72221 -19.5406
ltibia 63.5394
lfoot -7.79273 19.7227
ltoes 18.49
830
root -13.7825 16.3178 2.2309 -161.23 77.7469 -177.723
lowerback -13.0215 -0.898427 -3.73096
upperback -5.23868 -0.493155 0.926614
thorax 1.83828 -0.0808453 3.00501
lowerneck 3.65319 -3.07497 -8.30708
upperneck 1.23964 -4.37818 11.5632
head 0.204908 -2.24219 4.85434
rclavicle 2.01646e-014 1.88348e-014
rhumerus -41.0533 -31.6396 -68.4457
rradius 22.8336
rwrist 8.40585
rhand -18.0578 1.29325
rfingers 7.12502
rthumb 8.21454 -28.5271
lclavicle 2.01646e-014 1.88348e-014
lhumerus -53.7753 34.3078 59.9946
lradius 19.4338
lwrist -38.8722
lhand -5.68256 25.0811
lfingers 7.12502
lthumb 20.1375 54.0574
rfemur -24.1907 7.8573 24.4806
rtibia 28.3224
rfoot -12.6195 -17.5463
rtoes -6.44958
lfemur -34.7101 5.967 -19.8881
ltibia 63.3743
lfoot -8.3213 20.4833
ltoes 17.8703
831
root -13.6737 16.3189 2.22762 -161.405 78.203 -178.059
lowerback -13.0698 -0.789082 -3.75442
upperback -5.27659 -0.338557 0.814158
thorax 1.812 -0.00231859 2.9229
lowerneck 3.53518 -3.03312 -8.19073
upperneck 1.32889 -4.31819 11.3271
head 0.236974 -2.2077 4.75967
rclavicle -6.2159e-015 -7.95139e-015
rhumerus -40.3385 -31.2964 -69.1965
rradius 22.8375
rwrist 8.29175
rhand -18.1902 1.9931
rfingers 7.12502
rthumb 8.08676 -27.8322
lclavicle -6.2159e-015 -7.95139e-015
lhumerus -54.8759 34.9409 58.4493
lradius 19.0072
lwrist -40.2221
lhand -5.3728 25.1464
lfingers 7.12502
lthumb 20.4352 54.0911
rfemur -23.7607 8.15668 24.4038
rtibia 27.9429
rfoot -11.9381 -17.0203
rtoes -7.86347
lfemur -36.0608 5.39133 -20.1539
ltibia 63.0441
lfoot -8.66343 19.8995
ltoes 17.7702
832
root -13.5588 16.318 2.22629 -161.393 78.5929 -177.981
lowerback -12.9642 -0.656575 -3.80921
upperback -5.26407 -0.162723 0.779832
thorax 1.75426 0.0852783 2.94296
lowerneck 3.63438 -2.99548 -8.21462
upperneck 1.28498 -4.27285 11.1903
head 0.201163 -2.18919 4.72423
rclavicle 3.84874e-015 -6.4605e-015
rhumerus -39.7511 -31.4267 -69.5945
rradius 22.8358
rwrist 8.67994
rhand -18.2947 2.00179
rfingers 7.12502
rthumb 7.98594 -27.8273
lclavicle 3.84874e-015 -6.4605e-015
lhumerus -56.0372 35.4389 56.9828
lradius 18.5979
lwrist -41.6289
lhand -5.11939 25.1442
lfingers 7.12502
lthumb 20.6787 54.0626
rfemur -23.001 8.62896 24.4487
rtibia 27.5423
rfoot -12.7086 -17.3034
rtoes -6.53876
lfemur -37.0936 4.80584 -20.2419
ltibia 62.5655
lfoot -8.83877 19.7841
ltoes 16.4854
833
root -13.4357 16.3178 2.22394 -161.649 78.9596 -178.027
lowerback -12.8615 -0.517565 -3.75196
upperback -5.16565 0.0080808 0.607736
thorax 1.78909 0.162246 2.75459
lowerneck 3.83417 -2.95931 -8.18297
upperneck 1.09844 -4.22102 11.267
head 0.109562 -2.17093 4.74833
rclavicle 1.35348e-014 8.94531e-015
rhumerus -39.0687 -31.3617 -70.4116
rradius 22.9472
rwrist 8.58599
rhand -18.3017 1.34826
rfingers 7.12502
rthumb 7.97917 -28.4811
lclavicle 1.35348e-014 8.94531e-015
lhumerus -57.3044 36.2401 54.9315
lradius 18.1436
lwrist -43.4622
lhand -4.83666 25.2891
lfingers 7.12502
lthumb 20.9503 54.1777
rfemur -21.9917 9.05918 24.5091
rtibia 27.075
rfoot -13.6994 -17.0973
rtoes -4.07333
lfemur -37.8271 4.1207 -20.2734
ltibia 61.9397
lfoot -9.42507 19.8792
ltoes 14.8016
834
root -13.3088 16.3296 2.21731 -162.261 79.451 -178.51
lowerback -12.8989 -0.349859 -3.70241
upperback -5.05556 0.226955 0.381566
thorax 1.90991 0.261726 2.52197
lowerneck 4.086 -2.92476 -8.17172
upperneck 0.819127 -4.16867 11.3676
head -0.0168129 -2.1556 4.78507
rclavicle 2.28789e-014 -1.17283e-014
rhumerus -38.2785 -30.7416 -71.5414
rradius 23.161
rwrist 7.83235
rhand -18.4076 0.970108
rfingers 7.12502
rthumb 7.87699 -28.8631
lclavicle 2.28789e-014 -1.17283e-014
lhumerus -58.6732 37.2598 52.5637
lradius 17.6701
lwrist -45.423
lhand -4.42354 25.3025
lfingers 7.12502
lthumb 21.3472 54.1466
rfemur -21.0437 9.23672 24.4534
rtibia 26.5612
rfoot -13.6062 -17.2692
rtoes -3.81603
lfemur -38.6211 3.40242 -20.4121
ltibia 61.1112
lfoot -10.0144 19.6728
ltoes 11.9387
835
root -13.2033 16.3354 2.20121 -161.409 80.3862 -178.122
lowerback -13.261 -0.035383 -3.62189
upperback -5.16821 0.657866 0.341578
thorax 1.95861 0.480803 2.49973
lowerneck 4.1654 -2.92518 -8.21564
upperneck 0.676347 -4.17278 11.0678
head -0.0758202 -2.16253 4.70332
rclavicle 2.05369e-014 -1.98785e-016
rhumerus -37.5306 -29.8395 -72.4514
rradius 23.5366
rwrist 6.98939
rhand -18.8187 1.05808
rfingers 7.12502
rthumb 7.48012 -28.7897
lclavicle 2.05369e-014 -1.98785e-016
lhumerus -60.4416 38.4669 49.9839
lradius 17.1544
lwrist -47.8235
lhand -4.04605 24.8215
lfingers 7.12502
lthumb 21.7097 53.6242
rfemur -21.0101 9.33186 24.3053
rtibia 26.124
rfoot -13.7566 -16.7197
rtoes -3.94208
lfemur -40.2218 2.99881 -20.5705
ltibia 60.1933
lfoot -10.0221 19.2612
ltoes 9.87063
836
root -13.0752 16.3337 2.20759 -163.385 80.3992 -179.659
lowerback -12.9186 -0.0697072 -3.89933
upperback -4.96128 0.62392 0.170087
thorax 1.99104 0.453678 2.46947
lowerneck 4.13582 -2.87816 -8.04791
upperneck 0.584002 -4.0969 10.8527
head -0.112977 -2.1242 4.60995
rclavicle 6.5689e-014 5.76476e-015
rhumerus -36.8106 -29.5089 -73.4527
rradius 23.7431
rwrist 6.69333
rhand -19.0488 1.14138
rfingers 7.12502
rthumb 7.25802 -28.7141
lclavicle 6.5689e-014 5.76476e-015
lhumerus -61.8512 39.2088 47.6578
lradius 16.7931
lwrist -49.6202
lhand -3.65199 24.7439
lfingers 7.12502
lthumb 22.0881 53.5024
rfemur -19.7093 9.63273 24.2856
rtibia 25.6915
rfoot -13.6849 -17.504
rtoes -6.85627
lfemur -40.4062 2.19789 -20.6271
ltibia 59.0555
lfoot -10.7719 18.5892
ltoes 9.21554
837
root -12.9707 16.325 2.20161 -162.888 80.9029 -179.312
lowerback -12.7964 0.146247 -3.89128
upperback -5.07842 0.907728 0.108847
thorax 1.78363 0.60279 2.43769
lowerneck 4.37025 -2.81866 -8.02154
upperneck 0.339307 -4.0156 10.7456
head -0.233266 -2.09253 4.57973
rclavicle -9.61155e-015 -1.25234e-014
rhumerus -36.2516 -29.1594 -74.0898
rradius 23.9622
rwrist 6.31866
rhand -19.1189 0.991126
rfingers 7.12502
rthumb 7.1904 -28.8667
lclavicle -9.61155e-015 -1.25234e-014
lhumerus -63.5835 40.0658 45.1906
lradius 16.458
lwrist -51.6099
lhand -3.39402 24.8644
lfingers 7.12502
lthumb 22.3358 53.5933
rfemur -19.3009 9.92673 24.3169
rtibia 25.3051
rfoot -13.4206 -17.1583
rtoes -7.54482
lfemur -41.4212 1.74683 -20.5616
ltibia 57.8515
lfoot -11.5076 18.0699
ltoes 8.33911
838
root -12.8576 16.3237 2.19531 -163.136 81.3477 -179.613
lowerback -12.7706 0.279127 -3.87631
upperback -5.01811 1.08147 -0.032192
thorax 1.82396 0.684308 2.30633
lowerneck 4.38296 -2.7162 -7.90931
upperneck 0.0786451 -3.8587 10.6571
head -0.330416 -2.01734 4.53651
rclavicle 3.75827e-015 1.43125e-014
rhumerus -35.5844 -28.9593 -74.9141
rradius 24.2594
rwrist 6.06935
rhand -19.2168 1.21739
rfingers 7.12502
rthumb 7.09591 -28.6437
lclavicle 3.75827e-015 1.43125e-014
lhumerus -65.4323 41.169 42.2632
lradius 16.1219
lwrist -53.5781
lhand -2.9899 24.5852
lfingers 7.12502
lthumb 22.7237 53.2671
rfemur -18.6626 10.2125 24.2474
rtibia 24.8629
rfoot -14.6399 -16.8958
rtoes -3.44589
lfemur -42.2889 1.16578 -20.5409
ltibia 56.4493
lfoot -11.663 17.4188
ltoes 7.4662
